<?xml version="1.0" standalone="no"?>
<svg xmlns="http://www.w3.org/2000/svg" viewBox="0 0 250.32778567523238 88.96778567523236" width="250.32778567523238" height="88.96778567523236"><rect fill="none" stroke="#000000" stroke-width="4" width="246.32778567523238" height="84.96778567523236" x="2" y="2"></rect><g fill="#2137a6" color="#2137a6" transform="translate(12 21.543) scale(0.6496779)"><g transform="translate(-0.24, -12.616)"><svg width="100.0" height="70.625" x="0.24" y="12.616" viewBox="0.24 12.616 100 70.625"><rect x="41.932" y="19.744" width="39.071" height="6.451"></rect><polyline points="41.811,20.405 38.457,20.405 43.969,12.616 78.844,12.616 84.479,20.405 80.882,20.405 "></polyline><line fill="none" x1="86.621" y1="34.698" x2="91.972" y2="34.698"></line><rect x="86.621" y="32.9" width="5.351" height="3.596"></rect><path d="M100.24,62.654H89.813V31.912h10.427V62.654z M91.972,60.496h6.111V34.069h-6.111V60.496z"></path><path d="M87.028,25.369H35.59V82.98h15.431V71.664h9.26V82.98h3.086V71.664h8.23V82.98h15.431V25.369z M57.194,62.405H41.763v-7.202  h15.431V62.405z M57.194,51.088H41.763v-7.201h15.431V51.088z M57.194,38.743H41.763v-7.201h15.431V38.743z M80.856,62.405H65.425  v-7.202h15.432V62.405z M80.856,51.088H65.425v-7.201h15.432V51.088z M80.856,38.743H65.425v-7.201h15.432V38.743z"></path><path d="M26.194,83.241c0,0,2.674-11.427-1.626-18.217c-4.3-6.791-8.034-7.814-8.996-8.151c-2.198-0.768-8.874,5.639-8.316,11.094  c-2.77-3.756-3.514-11.706,2.729-14.668c-1.922-1.134-6.963,1.151-9.745,3.578c0-4.864,5.26-9.927,10.871-8.976  c0.873-1.204,1.244-8.532,12.312-8.806c-4.337,2.223-7.23,7.445-6.896,9.483c0.418-0.53,8.829-6.921,16.289,3.281  c-4.765-1.664-10.517-1.664-13.229,2.528c16.068,7.468,11.51,28.846,11.03,28.851C29.868,83.241,26.194,83.241,26.194,83.241z"></path></svg></g></g><path fill="#2137a6" fill-rule="nonzero" d="M27.40 28L18.56 28L18.56 17.56L8.84 17.56L8.84 28L0 28L0 0.48L8.84 0.48L8.84 10.52L18.56 10.52L18.56 0.48L27.40 0.48L27.40 28ZM47 0Q54.12 0 58 3.64Q61.88 7.28 61.88 14.24L61.88 14.24Q61.88 21.20 58 24.84Q54.12 28.48 47 28.48L47 28.48Q39.88 28.48 36.02 24.86Q32.16 21.24 32.16 14.24L32.16 14.24Q32.16 7.24 36.02 3.62Q39.88 0 47 0L47 0ZM47 6.60Q44.16 6.60 42.68 8.32Q41.20 10.04 41.20 12.96L41.20 12.96L41.20 15.52Q41.20 18.44 42.68 20.16Q44.16 21.88 47 21.88L47 21.88Q49.84 21.88 51.34 20.16Q52.84 18.44 52.84 15.52L52.84 15.52L52.84 12.96Q52.84 10.04 51.34 8.32Q49.84 6.60 47 6.60L47 6.60ZM90.44 7.52L81.44 7.52L81.44 28L72.60 28L72.60 7.52L63.56 7.52L63.56 0.48L90.44 0.48L90.44 7.52ZM94.48 28L94.48 0.48L118.28 0.48L118.28 7.08L103.32 7.08L103.32 10.88L116.12 10.88L116.12 17.20L103.32 17.20L103.32 21.40L118.56 21.40L118.56 28L94.48 28ZM123.36 28L123.36 0.48L132.20 0.48L132.20 20.96L146.32 20.96L146.32 28L123.36 28Z" transform="translate(91.968 12) scale(1.001)"></path><path fill="#2137a6" fill-rule="nonzero" d="M26.12 8.92Q26.12 11.44 24.76 13.48Q23.40 15.52 20.80 16.48L20.80 16.48L26.92 28L17 28L12.12 17.96L8.84 17.96L8.84 28L0 28L0 0.48L16.84 0.48Q19.80 0.48 21.90 1.62Q24 2.76 25.06 4.70Q26.12 6.64 26.12 8.92L26.12 8.92ZM17.12 9.28Q17.12 8.20 16.40 7.48Q15.68 6.76 14.64 6.76L14.64 6.76L8.84 6.76L8.84 11.84L14.64 11.84Q15.68 11.84 16.40 11.10Q17.12 10.36 17.12 9.28L17.12 9.28ZM31.12 28L31.12 0.48L54.92 0.48L54.92 7.08L39.96 7.08L39.96 10.88L52.76 10.88L52.76 17.20L39.96 17.20L39.96 21.40L55.20 21.40L55.20 28L31.12 28ZM87.80 28L78.44 28L77.28 24.12L67.64 24.12L66.48 28L57.44 28L67.48 0.48L77.76 0.48L87.80 28ZM72.40 8.16L69.48 17.96L75.44 17.96L72.56 8.16L72.40 8.16ZM103.52 0Q109.64 0 113.20 3.06Q116.76 6.12 116.76 11.80L116.76 11.80L108.32 11.80Q108.32 9.40 107.06 8Q105.80 6.60 103.48 6.60L103.48 6.60Q100.80 6.60 99.54 8.28Q98.28 9.96 98.28 12.96L98.28 12.96L98.28 15.52Q98.28 18.48 99.54 20.18Q100.80 21.88 103.40 21.88L103.40 21.88Q105.96 21.88 107.28 20.56Q108.60 19.24 108.60 16.84L108.60 16.84L116.76 16.84Q116.76 22.48 113.30 25.48Q109.84 28.48 103.52 28.48L103.52 28.48Q96.48 28.48 92.86 24.88Q89.24 21.28 89.24 14.24L89.24 14.24Q89.24 7.20 92.86 3.60Q96.48 0 103.52 0L103.52 0ZM146.36 7.52L137.36 7.52L137.36 28L128.52 28L128.52 7.52L119.48 7.52L119.48 0.48L146.36 0.48L146.36 7.52Z" transform="translate(91.968 48.488) scale(1)"></path></svg>